<mxfile host="app.diagrams.net" modified="2023-06-04T13:45:27.895Z" agent="Mozilla/5.0 (Windows NT 10.0; Win64; x64) AppleWebKit/537.36 (KHTML, like Gecko) Chrome/111.0.0.0 Safari/537.36" version="21.3.7" etag="CVBu1mADSu9pSZIar2aR" type="github">
  <diagram name="PÃ¡gina-1" id="XOrv1V9VYoxQRxlX9GfM">
    <mxGraphModel>
      <root>
        <mxCell id="0" />
        <mxCell id="1" parent="0" />
      </root>
    </mxGraphModel>
  </diagram>
</mxfile>
